<svg width="28" height="28" viewBox="0 0 28 28" fill="none" xmlns="http://www.w3.org/2000/svg">
<path d="M28 13.9999C28 6.26796 21.7319 -0.00012207 14 -0.00012207C6.26808 -0.00012207 0 6.26796 0 13.9999C0 20.5653 4.52032 26.0746 10.6182 27.5877V18.2783H7.73136V13.9999H10.6182V12.1564C10.6182 7.39132 12.7747 5.18268 17.453 5.18268C18.34 5.18268 19.8705 5.35684 20.4966 5.53044V9.40844C20.1662 9.37372 19.5922 9.35636 18.8793 9.35636C16.5838 9.35636 15.6968 10.226 15.6968 12.4868V13.9999H20.2698L19.4841 18.2783H15.6968V27.8974C22.629 27.0602 28 21.1578 28 13.9999Z" fill="#0866FF"/>
<path d="M19.4841 18.2783L20.2698 13.9999H15.6968V12.4868C15.6968 10.226 16.5838 9.35636 18.8793 9.35636C19.5922 9.35636 20.1662 9.37372 20.4966 9.40844V5.53044C19.8705 5.35684 18.34 5.18268 17.453 5.18268C12.7747 5.18268 10.6182 7.39132 10.6182 12.1564V13.9999H7.73136V18.2783H10.6182V27.5877C11.7012 27.8565 12.8337 28.0004 13.9997 28.0004C14.5737 28.0004 15.1398 27.9651 15.6959 27.8979V18.2788H19.4832L19.4841 18.2783Z" fill="white"/>
</svg>
