<svg width="100" height="100" viewBox="-2.88 -2.88 29.76 29.76" xmlns="http://www.w3.org/2000/svg">
    <rect x="-2.88" y="-2.88" width="29.76" height="29.76" rx="0" fill="#dcdcdc" stroke-width="0" />
    <g fill="#6b6b6b">
        <path
            d="M22.019 16.82l-3.13-7.32c-.57-1.34-1.42-2.1-2.39-2.15-.96-.05-1.89.62-2.6 1.9l-1.9 3.41c-.4.72-.97 1.15-1.59 1.2-.63.06-1.26-.27-1.77-.92l-.22-.28c-.71-.89-1.59-1.32-2.49-1.23-.9.09-1.67.71-2.18 1.72l-1.73 3.45c-.62 1.25-.56 2.7.17 3.88.73 1.18 2 1.89 3.39 1.89h12.76c1.34 0 2.59-.67 3.33-1.79.76-1.12.88-2.53.35-3.76zM6.97 8.381a3.38 3.38 0 100-6.76 3.38 3.38 0 000 6.76z" />
    </g>
</svg>